<svg viewBox="0 0 16 16" fill="none" xmlns="http://www.w3.org/2000/svg" id="Avatar--Streamline-Radix.svg" height="16" width="16"><desc>Avatar Streamline Icon: https://streamlinehq.com</desc><path fill-rule="evenodd" clip-rule="evenodd" d="M0.9354815999999999 7.999872c0 -3.901536 3.1628223999999996 -7.064357333333334 7.064358400000001 -7.064357333333334 3.9014933333333333 0 7.064373333333333 3.1628213333333335 7.064373333333333 7.064357333333334 0 3.9014613333333332 -3.16288 7.064341333333333 -7.064373333333333 7.064341333333333 -3.901536 0 -7.064358400000001 -3.16288 -7.064358400000001 -7.064341333333333ZM7.99984 1.9488426666666667c-3.341888 0 -6.051029333333333 2.7091413333333336 -6.051029333333333 6.051029333333333 0 1.5702186666666667 0.598112 3.000768 1.578944 4.076181333333333 0.942368 -1.4721173333333333 2.5929706666666665 -2.449397333333333 4.472490666666667 -2.449397333333333 1.8792853333333333 0 3.5296746666666667 0.9770453333333333 4.472181333333333 2.448864 0.98048 -1.0753066666666666 1.5784533333333333 -2.505685333333333 1.5784533333333333 -4.075648 0 -3.341888 -2.7092266666666664 -6.051029333333333 -6.05104 -6.051029333333333ZM11.71392 12.77728c-0.7444266666666666 -1.2791466666666667 -2.129173333333333 -2.1372906666666664 -3.7136746666666665 -2.1372906666666664 -1.5846933333333333 0 -2.9695893333333334 0.8583573333333333 -3.7138986666666667 2.1377173333333332 1.0251413333333332 0.7979733333333333 2.3138133333333335 1.2731733333333333 3.713493333333333 1.2731733333333333 1.3999146666666666 0 2.6888 -0.4754133333333333 3.7140799999999996 -1.2735999999999998ZM5.493322666666667 6.938528000000001c0 -1.3843946666666667 1.122272 -2.506666666666667 2.506666666666667 -2.506666666666667s2.506666666666667 1.122272 2.506666666666667 2.506666666666667 -1.122272 2.506666666666667 -2.506666666666667 2.506666666666667 -2.506666666666667 -1.122272 -2.506666666666667 -2.506666666666667Zm2.506666666666667 -1.4933333333333332c-0.8247466666666666 0 -1.4933333333333332 0.6685866666666667 -1.4933333333333332 1.4933333333333332 0 0.8247466666666666 0.6685866666666667 1.4933333333333332 1.4933333333333332 1.4933333333333332 0.8247466666666666 0 1.4933333333333332 -0.6685866666666667 1.4933333333333332 -1.4933333333333332 0 -0.8247466666666666 -0.6685866666666667 -1.4933333333333332 -1.4933333333333332 -1.4933333333333332Z" fill="#ffffff" stroke-width="1"></path></svg>