<svg width="20" height="20" viewBox="0 0 20 20" fill="none" xmlns="http://www.w3.org/2000/svg">
<path d="M4.16667 17.5C3.70833 17.5 3.31611 17.3369 2.99 17.0108C2.66389 16.6847 2.50056 16.2922 2.5 15.8333V12.5C2.5 12.0416 2.66333 11.6494 2.99 11.3233C3.31667 10.9972 3.70889 10.8338 4.16667 10.8333H12.5V7.49996H14.1667V10.8333H15.8333C16.2917 10.8333 16.6842 10.9966 17.0108 11.3233C17.3375 11.65 17.5006 12.0422 17.5 12.5V15.8333C17.5 16.2916 17.3369 16.6841 17.0108 17.0108C16.6847 17.3375 16.2922 17.5005 15.8333 17.5H4.16667ZM5.83333 15C6.06944 15 6.2675 14.92 6.4275 14.76C6.5875 14.6 6.66722 14.4022 6.66667 14.1666C6.66611 13.9311 6.58611 13.7333 6.42667 13.5733C6.26722 13.4133 6.06944 13.3333 5.83333 13.3333C5.59722 13.3333 5.39944 13.4133 5.24 13.5733C5.08056 13.7333 5.00056 13.9311 5 14.1666C4.99944 14.4022 5.07944 14.6002 5.24 14.7608C5.40056 14.9213 5.59833 15.0011 5.83333 15ZM8.75 15C8.98611 15 9.18417 14.92 9.34417 14.76C9.50417 14.6 9.58389 14.4022 9.58333 14.1666C9.58278 13.9311 9.50278 13.7333 9.34333 13.5733C9.18389 13.4133 8.98611 13.3333 8.75 13.3333C8.51389 13.3333 8.31611 13.4133 8.15667 13.5733C7.99722 13.7333 7.91722 13.9311 7.91667 14.1666C7.91611 14.4022 7.99611 14.6002 8.15667 14.7608C8.31722 14.9213 8.515 15.0011 8.75 15ZM11.6667 15C11.9028 15 12.1008 14.92 12.2608 14.76C12.4208 14.6 12.5006 14.4022 12.5 14.1666C12.4994 13.9311 12.4194 13.7333 12.26 13.5733C12.1006 13.4133 11.9028 13.3333 11.6667 13.3333C11.4306 13.3333 11.2328 13.4133 11.0733 13.5733C10.9139 13.7333 10.8339 13.9311 10.8333 14.1666C10.8328 14.4022 10.9128 14.6002 11.0733 14.7608C11.2339 14.9213 11.4317 15.0011 11.6667 15ZM11.875 6.87496L10.6667 5.66663C11.0278 5.33329 11.4306 5.0694 11.875 4.87496C12.3194 4.68051 12.8056 4.58329 13.3333 4.58329C13.8611 4.58329 14.3472 4.68051 14.7917 4.87496C15.2361 5.0694 15.6389 5.33329 16 5.66663L14.7917 6.87496C14.5972 6.68051 14.3783 6.52774 14.135 6.41663C13.8917 6.30551 13.6244 6.24996 13.3333 6.24996C13.0422 6.24996 12.7747 6.30551 12.5308 6.41663C12.2869 6.52774 12.0683 6.68051 11.875 6.87496ZM9.79167 4.79163L8.625 3.62496C9.23611 3.01385 9.94444 2.53468 10.75 2.18746C11.5556 1.84024 12.4167 1.66663 13.3333 1.66663C14.25 1.66663 15.1111 1.84024 15.9167 2.18746C16.7222 2.53468 17.4306 3.01385 18.0417 3.62496L16.875 4.79163C16.4167 4.33329 15.8856 3.97579 15.2817 3.71913C14.6778 3.46246 14.0283 3.33385 13.3333 3.33329C12.6383 3.33274 11.9892 3.46135 11.3858 3.71913C10.7825 3.9769 10.2511 4.3344 9.79167 4.79163Z" fill="black"/>
</svg>
