<svg width="20" height="20" viewBox="0 0 20 20" fill="none" xmlns="http://www.w3.org/2000/svg">
<path d="M10 17.1667C9.41667 17.1667 8.92361 16.9653 8.52083 16.5625C8.11806 16.1597 7.91667 15.6667 7.91667 15.0833C7.91667 14.5 8.11806 14.0069 8.52083 13.6042C8.92361 13.2014 9.41667 13 10 13C10.5833 13 11.0764 13.2014 11.4792 13.6042C11.8819 14.0069 12.0833 14.5 12.0833 15.0833C12.0833 15.6667 11.8819 16.1597 11.4792 16.5625C11.0764 16.9653 10.5833 17.1667 10 17.1667ZM5.29167 12.4583L3.54167 10.6667C4.36111 9.84722 5.32306 9.19806 6.4275 8.71917C7.53194 8.24028 8.72278 8.00056 10 8C11.2772 7.99944 12.4683 8.2425 13.5733 8.72917C14.6783 9.21583 15.64 9.87556 16.4583 10.7083L14.7083 12.4583C14.0972 11.8472 13.3889 11.3681 12.5833 11.0208C11.7778 10.6736 10.9167 10.5 10 10.5C9.08333 10.5 8.22222 10.6736 7.41667 11.0208C6.61111 11.3681 5.90278 11.8472 5.29167 12.4583ZM1.75 8.91667L0 7.16667C1.27778 5.86111 2.77083 4.84028 4.47917 4.10417C6.1875 3.36806 8.02778 3 10 3C11.9722 3 13.8125 3.36806 15.5208 4.10417C17.2292 4.84028 18.7222 5.86111 20 7.16667L18.25 8.91667C17.1806 7.84722 15.9411 7.01056 14.5317 6.40667C13.1222 5.80278 11.6117 5.50056 10 5.5C8.38833 5.49944 6.87806 5.80167 5.46917 6.40667C4.06028 7.01167 2.82056 7.84833 1.75 8.91667Z" fill="black"/>
</svg>
