<svg width="20" height="20" viewBox="0 0 20 20" fill="none" xmlns="http://www.w3.org/2000/svg">
<path d="M1.66675 1.66663H9.16675V9.16663H1.66675V1.66663ZM10.8334 5.41663C10.8334 4.92417 10.9304 4.43653 11.1189 3.98156C11.3073 3.52659 11.5835 3.1132 11.9318 2.76498C12.28 2.41676 12.6934 2.14053 13.1484 1.95208C13.6033 1.76362 14.091 1.66663 14.5834 1.66663C15.0759 1.66663 15.5635 1.76362 16.0185 1.95208C16.4734 2.14053 16.8868 2.41676 17.2351 2.76498C17.5833 3.1132 17.8595 3.52659 18.048 3.98156C18.2364 4.43653 18.3334 4.92417 18.3334 5.41663C18.3334 6.41119 17.9383 7.36501 17.2351 8.06828C16.5318 8.77154 15.578 9.16663 14.5834 9.16663C13.5889 9.16663 12.635 8.77154 11.9318 8.06828C11.2285 7.36501 10.8334 6.41119 10.8334 5.41663ZM1.66675 10.8333H9.16675V18.3333H1.66675V10.8333ZM10.8334 10.8333H18.3334V18.3333H10.8334V10.8333Z" fill="black"/>
</svg>
