<svg width="20" height="20" viewBox="0 0 20 20" fill="none" xmlns="http://www.w3.org/2000/svg">
<path d="M9.95842 15C10.2501 15 10.4967 14.8991 10.6984 14.6975C10.9001 14.4958 11.0006 14.2494 11.0001 13.9583C10.9995 13.6672 10.899 13.4205 10.6984 13.2183C10.4979 13.0161 10.2512 12.9155 9.95842 12.9166C9.66564 12.9177 9.41925 13.0186 9.21925 13.2191C9.01925 13.4197 8.91842 13.6661 8.91675 13.9583C8.91508 14.2505 9.01591 14.4972 9.21925 14.6983C9.42258 14.8994 9.66897 15 9.95842 15ZM9.20842 11.7916H10.7501C10.7501 11.3333 10.8023 10.9722 10.9067 10.7083C11.0112 10.4444 11.3062 10.0833 11.7917 9.62496C12.1529 9.26385 12.4376 8.91996 12.6459 8.5933C12.8542 8.26663 12.9584 7.87441 12.9584 7.41663C12.9584 6.63885 12.6737 6.04163 12.1042 5.62496C11.5348 5.2083 10.8612 4.99996 10.0834 4.99996C9.29175 4.99996 8.64953 5.2083 8.15675 5.62496C7.66397 6.04163 7.32008 6.54163 7.12508 7.12496L8.50008 7.66663C8.56953 7.41663 8.72591 7.1458 8.96925 6.85413C9.21258 6.56246 9.58397 6.41663 10.0834 6.41663C10.5279 6.41663 10.8612 6.5383 11.0834 6.78163C11.3056 7.02496 11.4167 7.29219 11.4167 7.5833C11.4167 7.86107 11.3334 8.12163 11.1667 8.36496C11.0001 8.6083 10.7917 8.83385 10.5417 9.04163C9.93064 9.5833 9.55564 9.99302 9.41675 10.2708C9.27786 10.5486 9.20842 11.0555 9.20842 11.7916ZM10.0001 18.3333C8.8473 18.3333 7.76397 18.1147 6.75008 17.6775C5.73619 17.2402 4.85425 16.6464 4.10425 15.8958C3.35425 15.1452 2.76064 14.2633 2.32342 13.25C1.88619 12.2366 1.6673 11.1533 1.66675 9.99996C1.66619 8.84663 1.88508 7.7633 2.32342 6.74996C2.76175 5.73663 3.35536 4.85469 4.10425 4.10413C4.85314 3.35357 5.73508 2.75996 6.75008 2.3233C7.76508 1.88663 8.84842 1.66774 10.0001 1.66663C11.1517 1.66552 12.2351 1.88441 13.2501 2.3233C14.2651 2.76219 15.147 3.3558 15.8959 4.10413C16.6448 4.85246 17.2387 5.73441 17.6776 6.74996C18.1165 7.76552 18.3351 8.84885 18.3334 9.99996C18.3317 11.1511 18.1129 12.2344 17.6767 13.25C17.2406 14.2655 16.647 15.1475 15.8959 15.8958C15.1448 16.6441 14.2629 17.238 13.2501 17.6775C12.2373 18.1169 11.154 18.3355 10.0001 18.3333ZM10.0001 16.6666C11.8612 16.6666 13.4376 16.0208 14.7292 14.7291C16.0209 13.4375 16.6667 11.8611 16.6667 9.99996C16.6667 8.13885 16.0209 6.56246 14.7292 5.2708C13.4376 3.97913 11.8612 3.3333 10.0001 3.3333C8.13897 3.3333 6.56258 3.97913 5.27092 5.2708C3.97925 6.56246 3.33342 8.13885 3.33342 9.99996C3.33342 11.8611 3.97925 13.4375 5.27092 14.7291C6.56258 16.0208 8.13897 16.6666 10.0001 16.6666Z" fill="black"/>
</svg>
