<svg width="20" height="20" viewBox="0 0 20 20" fill="none" xmlns="http://www.w3.org/2000/svg">
<path d="M6.66675 17.5V15.8333H3.33341C2.87508 15.8333 2.48286 15.6703 2.15675 15.3442C1.83064 15.0181 1.6673 14.6256 1.66675 14.1667V4.16667C1.66675 3.70833 1.83008 3.31611 2.15675 2.99C2.48341 2.66389 2.87564 2.50056 3.33341 2.5H16.6667C17.1251 2.5 17.5176 2.66333 17.8442 2.99C18.1709 3.31667 18.334 3.70889 18.3334 4.16667V14.1667C18.3334 14.625 18.1704 15.0175 17.8442 15.3442C17.5181 15.6708 17.1256 15.8339 16.6667 15.8333H13.3334V17.5H6.66675ZM3.33341 14.1667H16.6667V4.16667H3.33341V14.1667Z" fill="white"/>
</svg>
