<svg width="20" height="20" viewBox="0 0 20 20" fill="none" xmlns="http://www.w3.org/2000/svg">
<g clip-path="url(#clip0_4028_635)">
<path d="M3.05833 5.11667C3.05833 5.11667 1.51667 6.59167 1.43333 8.15001V8.44167C1.5 9.70001 2.45 10.4417 2.45 10.4417C3.975 11.9333 7.66667 13.8083 8.53333 14.2333C8.53333 14.2333 8.58333 14.2583 8.61667 14.225L8.63333 14.1917V14.1583C6.26667 9.00001 3.05833 5.11667 3.05833 5.11667ZM8.04167 15.5C8.025 15.4333 7.95833 15.4333 7.95833 15.4333L1.80833 15.65C2.475 16.8417 3.6 17.7583 4.775 17.4833C5.575 17.275 7.40833 16 8.00833 15.5667C8.05833 15.525 8.04167 15.4917 8.04167 15.4917V15.5ZM8.10833 14.85C5.40833 13.025 0.175 10.2333 0.175 10.2333C0.05 10.6167 0.00833333 10.9833 0 11.3167V11.375C0 12.2667 0.333333 12.8917 0.333333 12.8917C1 14.3 2.28333 14.725 2.28333 14.725C2.86667 14.975 3.45 14.9833 3.45 14.9833C3.55 15 7.11667 14.9833 8.06667 14.9833C8.10833 14.9833 8.13333 14.9417 8.13333 14.9417V14.8917C8.13333 14.8667 8.10833 14.85 8.10833 14.85ZM7.55 2.65834C6.95916 2.8092 6.43228 3.14559 6.04679 3.61808C5.6613 4.09057 5.43752 4.67424 5.40833 5.28334V5.62501C5.43333 6.12501 5.54167 6.50001 5.54167 6.50001C6.09167 8.91668 8.75833 12.875 9.33333 13.7083C9.375 13.75 9.41667 13.7333 9.41667 13.7333C9.43267 13.7264 9.4461 13.7147 9.45507 13.6997C9.46404 13.6848 9.4681 13.6674 9.46667 13.65C10.35 4.81667 8.54167 2.46667 8.54167 2.46667C8.275 2.48334 7.55 2.65834 7.55 2.65834ZM14.4658 4.55001C14.4658 4.55001 14.0575 3.05001 12.4325 2.65001C12.4325 2.65001 11.9575 2.53334 11.4575 2.46667C11.4575 2.46667 9.64083 4.80834 10.5242 13.6583C10.5325 13.7167 10.5742 13.725 10.5742 13.725C10.6325 13.75 10.6575 13.7 10.6575 13.7C11.2575 12.8417 13.9075 8.90001 14.4492 6.50001C14.4492 6.50001 14.7492 5.33334 14.4658 4.55001ZM12.0325 15.4417C12.0325 15.4417 11.9742 15.4417 11.9575 15.4833C11.9575 15.4833 11.9492 15.5417 11.9825 15.5667C12.5658 15.9917 14.3575 17.2333 15.2158 17.4833C15.2158 17.4833 15.3492 17.525 15.5742 17.5333H15.6908C16.2658 17.5167 17.2742 17.225 18.1908 15.65L12.0242 15.4417H12.0325ZM18.5575 8.43334C18.6742 6.71667 16.9408 5.12501 16.9408 5.11667C16.9408 5.11667 13.7325 9.00001 11.3825 14.1167C11.3825 14.1167 11.3575 14.1833 11.3992 14.225L11.4325 14.2333H11.4825C12.3658 13.7917 16.0325 11.925 17.5492 10.45C17.5492 10.45 18.5075 9.67501 18.5575 8.43334ZM19.8242 10.2167C19.8242 10.2167 14.5908 13.025 11.8908 14.8417C11.8908 14.8417 11.8492 14.875 11.8658 14.9333C11.8658 14.9333 11.8908 14.9833 11.9242 14.9833C12.8908 14.9833 16.5575 14.9833 16.6492 14.9667C16.6492 14.9667 17.1242 14.95 17.7075 14.725C17.7075 14.725 19.0075 14.3083 19.6825 12.8333C19.6825 12.8333 20.2908 11.625 19.8242 10.2167Z" fill="white"/>
</g>
<defs>
<clipPath id="clip0_4028_635">
<rect width="20" height="20" fill="white"/>
</clipPath>
</defs>
</svg>
