<svg width="20" height="21" viewBox="0 0 20 21" fill="none" xmlns="http://www.w3.org/2000/svg">
<path d="M16.1766 6.17732C15.3664 5.36533 14.4035 4.72175 13.3434 4.28368C12.2833 3.84562 11.147 3.62175 10 3.62497H9.96875C5.16172 3.64138 1.25 7.60935 1.25 12.4633V14.25C1.25 14.5815 1.3817 14.8994 1.61612 15.1339C1.85054 15.3683 2.16848 15.5 2.5 15.5H17.5C17.8315 15.5 18.1495 15.3683 18.3839 15.1339C18.6183 14.8994 18.75 14.5815 18.75 14.25V12.375C18.7532 11.2229 18.5274 10.0817 18.0856 9.01776C17.6438 7.95378 16.9949 6.98825 16.1766 6.17732ZM17.5 14.25H9.35234L13.6305 8.36716C13.7281 8.2331 13.7684 8.06577 13.7426 7.90196C13.7168 7.73816 13.627 7.59131 13.493 7.49372C13.3589 7.39613 13.1916 7.35579 13.0278 7.38158C12.864 7.40736 12.7171 7.49716 12.6195 7.63122L7.80625 14.25H2.5V12.4633C2.5 12.2226 2.51172 11.9851 2.53359 11.75H4.375C4.54076 11.75 4.69973 11.6841 4.81694 11.5669C4.93415 11.4497 5 11.2907 5 11.125C5 10.9592 4.93415 10.8002 4.81694 10.683C4.69973 10.5658 4.54076 10.5 4.375 10.5H2.75547C3.56172 7.46404 6.19297 5.16872 9.375 4.90154V6.74997C9.375 6.91573 9.44085 7.0747 9.55806 7.19191C9.67527 7.30913 9.83424 7.37497 10 7.37497C10.1658 7.37497 10.3247 7.30913 10.4419 7.19191C10.5592 7.0747 10.625 6.91573 10.625 6.74997V4.90075C12.1755 5.03124 13.6472 5.64005 14.8368 6.64307C16.0264 7.64608 16.8751 8.99379 17.2656 10.5H15.625C15.4592 10.5 15.3003 10.5658 15.1831 10.683C15.0658 10.8002 15 10.9592 15 11.125C15 11.2907 15.0658 11.4497 15.1831 11.5669C15.3003 11.6841 15.4592 11.75 15.625 11.75H17.4742C17.4906 11.957 17.5 12.1648 17.5 12.375V14.25Z" fill="white"/>
</svg>
