<svg width="435" height="316" viewBox="0 0 435 316" fill="none" xmlns="http://www.w3.org/2000/svg">
<g clip-path="url(#clip0_4026_783)">
<path d="M435 173.931C435 174.237 434.752 174.485 434.446 174.485H0V173.377H434.446C434.752 173.377 435 173.625 435 173.931Z" fill="#E6E6E6"/>
<path d="M142.848 39.3717C151.916 39.3717 159.266 32.0148 159.266 22.9396C159.266 13.8644 151.916 6.50757 142.848 6.50757C133.781 6.50757 126.43 13.8644 126.43 22.9396C126.43 32.0148 133.781 39.3717 142.848 39.3717Z" fill="#FFB6B6"/>
<path d="M151.548 42.8389L129.938 49.0186L126.851 55.9707L119.904 89.1866V141.714C119.904 141.714 111.414 160.253 116.045 176.475C120.995 193.814 138.428 173.349 151.548 175.684C164.669 178.02 185.508 180.337 185.508 180.337L173.159 123.947L170.072 55.1983L151.548 42.8389Z" fill="#E6E6E6"/>
<path d="M147.47 28.3208L144.132 26.6504C144.132 26.6504 143.298 19.1336 141.629 17.4632C139.96 15.7928 139.96 14.9576 139.96 14.9576L142.463 11.6168C142.463 11.6168 129.946 18.2984 127.442 14.1224C124.939 9.94642 128.277 8.27603 128.277 8.27603L124.104 4.93523C124.104 4.93523 129.111 8.27602 129.946 5.77043C130.78 3.26483 135.787 1.56484 135.787 1.56484C135.787 1.56484 146.721 4.04084 145.844 1.56484C144.967 -0.911162 148.305 1.59444 149.139 2.42963C149.974 3.26483 157.484 11.6168 158.319 10.7816C159.153 9.94642 163.326 12.452 162.491 13.2872C161.657 14.1224 161.657 14.9576 162.491 15.7928C163.326 16.628 168.333 25.8152 164.16 29.156C159.988 32.4968 154.146 36.6728 154.981 40.0136C155.815 43.3544 154.981 29.156 147.47 28.3208Z" fill="#2F2E41"/>
<path d="M66.5365 69.6923C62.3226 66.0566 60.7812 60.9335 63.0934 58.2498C65.4056 55.5661 70.6952 56.3384 74.9102 59.9759C76.6138 61.4058 77.9505 63.2233 78.8084 65.2762L96.4688 80.9064L88.9635 89.0445L72.3504 72.772C70.1945 72.2248 68.2009 71.1688 66.5365 69.6923Z" fill="#FFB6B6"/>
<path d="M127.036 56.2364L138.669 55.178L148.871 103.874C150.815 113.153 144.737 122.212 135.42 123.924L127.036 125.464L73.5957 78.3721L81.4033 65.3456L120.813 90.0877L127.036 56.2364Z" fill="#E6E6E6"/>
<path d="M101.065 272.795C101.065 272.795 91.838 289.945 92.4971 289.285C93.1561 288.626 104.36 292.583 104.36 292.583L110.951 275.433L101.065 272.795Z" fill="#FFB6B6"/>
<path d="M87.4462 152.749C87.4462 152.749 82.7231 171.645 83.1995 170.843C83.676 170.041 95.5086 171.116 95.5086 171.116L97.6767 152.87L87.4462 152.749Z" fill="#FFB6B6"/>
<path d="M169.606 149.572C148.755 152.504 129.921 149.947 114.575 137.905C114.575 137.905 103.371 175.503 123.802 179.46C144.233 183.418 166.97 176.616 169.606 170.02C172.242 163.424 169.606 149.572 169.606 149.572Z" fill="#2F2E41"/>
<path d="M130.722 161.445L107.985 215.079L97.4399 277.083L111.28 280.381L136.036 223.324L169.606 168.701L130.722 161.445Z" fill="#2F2E41"/>
<path d="M127.756 146.15C127.756 146.15 122.484 105.254 112.598 102.616C107.779 101.33 103.273 101.454 99.9198 101.92C96.5405 102.389 93.8465 104.973 93.2556 108.336L84.272 159.466H96.9756L101.065 145.614L111.939 164.619L127.756 146.15Z" fill="#2F2E41"/>
<path d="M95.4628 165.938L82.9019 164.619L80.9636 171.875C80.9636 171.875 60.5331 190.344 71.0779 191.663C81.6227 192.982 91.5085 185.727 91.5085 185.727L106.014 177.398C106.014 177.398 100.406 162.434 96.4513 162.434C92.497 162.434 95.4628 165.938 95.4628 165.938Z" fill="#2F2E41"/>
<path d="M102.053 289.615L89.4925 288.296L87.5542 295.551C87.5542 295.551 67.1236 314.02 77.6685 315.34C88.2133 316.659 98.099 309.403 98.099 309.403L112.605 301.075C112.605 301.075 111.61 285.451 107.655 285.451C103.701 285.451 102.053 289.615 102.053 289.615Z" fill="#2F2E41"/>
<path d="M165.653 189.76C164.139 194.959 160.231 198.391 156.926 197.426C153.62 196.461 152.169 191.464 153.685 186.264C154.262 184.179 155.329 182.262 156.798 180.674L163.493 158.728L173.716 162.092L166.031 183.369C166.417 185.499 166.287 187.691 165.653 189.76Z" fill="#FFB6B6"/>
<path d="M172.729 55.294L167.399 53.7893C162.372 63.7985 160.211 75.0043 161.154 86.1668L163.785 117.314L155.104 172.06L172.118 176.465L185.526 107.761L172.729 55.294Z" fill="#E6E6E6"/>
<path d="M68.9547 140.888C68.7212 140.173 66.952 140.488 66.7822 139.849C66.6129 139.212 68.3106 138.677 69.6126 136.882C69.8474 136.558 71.3271 134.517 70.7596 133.659C69.6839 132.032 62.1997 136.084 60.4033 133.81C60.009 133.311 59.8468 132.455 58.6723 130.861C58.205 130.227 57.9053 129.92 57.5471 129.929C57.0389 129.942 56.857 130.579 56.0583 131.731C54.8604 133.46 54.4281 133.243 53.639 134.659C53.0532 135.711 52.9837 136.382 52.5613 136.422C51.9635 136.478 51.7165 135.169 50.986 135.118C50.2406 135.066 49.4948 136.36 49.125 137.37C48.4311 139.267 48.8608 140.716 48.9561 142.161C49.0596 143.731 48.8165 146.029 47.1122 148.979L31.0369 174.612C34.4892 169.387 44.2891 155.137 48.2374 149.91C49.3772 148.401 50.6021 146.886 52.4874 146.601C54.3024 146.326 56.5109 147.225 59.5935 147.173C59.9535 147.167 60.9554 147.137 61.1991 146.606C61.4006 146.166 60.9004 145.784 61.0823 145.371C61.3264 144.817 62.4247 145.055 63.9214 144.687C64.9768 144.427 65.6938 143.999 66.3104 143.63C66.4962 143.519 69.2654 141.84 68.9547 140.888Z" fill="#F2F2F2"/>
<path d="M26.8505 146.873C26.4326 146.782 26.0765 147.741 25.7139 147.64C25.3526 147.54 25.5804 146.552 25.0756 145.394C24.9846 145.185 24.4108 143.87 23.8262 143.901C22.7181 143.96 22.5456 148.805 20.9122 149.032C20.5538 149.081 20.0869 148.914 18.9663 149.031C18.5204 149.077 18.2838 149.136 18.1849 149.315C18.0446 149.568 18.3041 149.841 18.6389 150.566C19.141 151.653 18.9098 151.803 19.3767 152.599C19.7233 153.19 20.0327 153.418 19.9303 153.637C19.7853 153.947 19.072 153.691 18.8364 154.035C18.5959 154.386 19.015 155.126 19.4039 155.599C20.1337 156.487 20.9685 156.694 21.7044 157.064C22.5041 157.466 23.561 158.249 24.5157 159.937L32.4479 175.23C30.8814 172.026 26.721 163.101 25.297 159.653C24.8859 158.658 24.4964 157.619 24.9006 156.61C25.2897 155.64 26.3677 154.814 27.2314 153.285C27.3323 153.106 27.6068 152.605 27.4165 152.332C27.2591 152.107 26.9274 152.242 26.7774 152.034C26.5762 151.754 27.0096 151.283 27.261 150.442C27.4383 149.848 27.4349 149.372 27.432 148.963C27.4312 148.84 27.4069 146.995 26.8505 146.873Z" fill="#F2F2F2"/>
<path d="M34.7642 150.604L35.0135 148.3L35.1664 148.156C35.8739 147.486 36.3165 146.777 36.4826 146.048C36.509 145.932 36.5294 145.814 36.5504 145.695C36.6332 145.221 36.736 144.632 37.191 144.021C37.4457 143.68 38.1194 142.91 38.8142 143.179C39.0017 143.249 39.1283 143.371 39.2162 143.5C39.2383 143.477 39.2609 143.455 39.2851 143.431C39.5852 143.139 39.7951 143.032 39.9974 142.929C40.1528 142.85 40.3133 142.768 40.5848 142.551C40.704 142.455 40.7994 142.37 40.8797 142.298C41.1235 142.08 41.4354 141.825 41.8625 141.926C42.3153 142.049 42.4706 142.482 42.5736 142.768C42.7575 143.278 42.8141 143.629 42.8516 143.862C42.8651 143.947 42.8808 144.043 42.8926 144.074C42.9917 144.324 44.2358 144.389 44.7039 144.416C45.7561 144.473 46.6667 144.522 46.8856 145.244C47.0427 145.759 46.7153 146.322 45.8843 146.96C45.6255 147.159 45.3667 147.296 45.1412 147.398C45.2799 147.53 45.3904 147.708 45.3971 147.951C45.4124 148.526 44.8228 148.968 43.6448 149.266C43.3521 149.34 42.9583 149.439 42.4431 149.414C42.2005 149.402 41.9879 149.365 41.8067 149.33C41.7797 149.434 41.7301 149.541 41.6408 149.643C41.3786 149.943 40.9552 150.02 40.3805 149.851C39.746 149.674 39.2447 149.433 38.8023 149.221C38.4159 149.037 38.0827 148.88 37.8032 148.837C37.2832 148.764 36.7984 149.085 36.2181 149.513L34.7642 150.604Z" fill="#F2F2F2"/>
<path d="M38.9136 137.482L36.6236 137.825L36.445 137.713C35.6187 137.198 34.8212 136.949 34.0738 136.974C33.955 136.978 33.8364 136.988 33.7156 136.998C33.2368 137.038 32.6416 137.087 31.935 136.802C31.541 136.642 30.6258 136.185 30.7095 135.444C30.73 135.245 30.8155 135.091 30.9178 134.974C30.8906 134.958 30.8633 134.942 30.8337 134.924C30.4755 134.708 30.3189 134.532 30.1681 134.362C30.0521 134.232 29.9326 134.097 29.6536 133.889C29.5312 133.798 29.4241 133.728 29.3341 133.668C29.0617 133.487 28.736 133.25 28.7253 132.811C28.7302 132.341 29.1086 132.081 29.3591 131.909C29.8058 131.601 30.1307 131.457 30.3462 131.362C30.425 131.327 30.5136 131.288 30.5407 131.269C30.7571 131.109 30.5041 129.888 30.4114 129.428C30.1998 128.395 30.0166 127.501 30.658 127.106C31.1167 126.823 31.7436 126.998 32.5712 127.64C32.8288 127.84 33.0269 128.056 33.183 128.249C33.2747 128.081 33.4191 127.929 33.6523 127.861C34.2045 127.7 34.7807 128.159 35.3672 129.224C35.5137 129.488 35.7092 129.844 35.8157 130.349C35.8657 130.587 35.8836 130.802 35.896 130.987C36.0028 130.987 36.1192 131.007 36.2404 131.068C36.5972 131.246 36.7784 131.636 36.7605 132.236C36.7505 132.895 36.645 133.441 36.5528 133.923C36.4727 134.344 36.405 134.706 36.4343 134.988C36.4958 135.51 36.9294 135.898 37.4898 136.351L38.9136 137.482Z" fill="#F2F2F2"/>
<path d="M39.2224 130.599L39.4717 128.295L39.6247 128.151C40.3322 127.481 40.7748 126.772 40.9408 126.043C40.9672 125.927 40.9877 125.809 41.0086 125.69C41.0914 125.216 41.1942 124.627 41.6493 124.015C41.9039 123.675 42.5776 122.904 43.2724 123.173C43.4599 123.244 43.5865 123.366 43.6744 123.495C43.6965 123.472 43.7191 123.45 43.7433 123.426C44.0434 123.134 44.2534 123.027 44.4556 122.924C44.611 122.845 44.7715 122.763 45.0431 122.546C45.1622 122.45 45.2576 122.364 45.338 122.292C45.5818 122.075 45.8936 121.819 46.3208 121.92C46.7736 122.044 46.9288 122.477 47.0318 122.763C47.2157 123.273 47.2724 123.624 47.3099 123.857C47.3234 123.942 47.339 124.038 47.3509 124.069C47.45 124.319 48.6941 124.384 49.1622 124.411C50.2144 124.468 51.1249 124.517 51.3439 125.238C51.501 125.754 51.1735 126.317 50.3426 126.955C50.0837 127.154 49.8249 127.291 49.5995 127.393C49.7382 127.524 49.8486 127.703 49.8554 127.946C49.8706 128.521 49.281 128.963 48.1031 129.26C47.8103 129.335 47.4166 129.434 46.9014 129.409C46.6587 129.397 46.4462 129.36 46.2649 129.325C46.2379 129.429 46.1884 129.536 46.099 129.638C45.8369 129.938 45.4135 130.015 44.8387 129.845C44.2042 129.668 43.7029 129.428 43.2605 129.216C42.8741 129.032 42.541 128.874 42.2614 128.831C41.7415 128.759 41.2566 129.08 40.6764 129.508L39.2224 130.599Z" fill="#F2F2F2"/>
<path d="M31.797 174.743L31.3921 174.343L30.8294 174.284C30.8321 174.231 30.8284 174.107 30.8243 173.913C30.8026 172.853 30.7354 169.628 31.1842 164.671C31.4976 161.212 32.0212 157.7 32.7406 154.231C33.4612 150.758 34.2091 148.173 34.8098 146.096C35.2631 144.529 35.7207 143.043 36.1673 141.595C37.3593 137.728 38.4848 134.075 39.1818 129.908C39.3379 128.977 39.6618 127.041 38.9986 124.755C38.6138 123.43 37.955 122.182 37.0397 121.048L37.9255 120.332C38.9355 121.585 39.6641 122.967 40.0914 124.439C40.8268 126.973 40.4738 129.083 40.3042 130.097C39.5949 134.337 38.4581 138.026 37.2544 141.93C36.81 143.373 36.3539 144.852 35.9026 146.413C35.3073 148.471 34.5662 151.033 33.855 154.462C33.1437 157.889 32.6267 161.358 32.3168 164.774C31.874 169.668 31.9405 172.845 31.9623 173.889C31.9735 174.447 31.976 174.563 31.797 174.743Z" fill="#F2F2F2"/>
<path d="M34.6095 122.36C34.5639 122.349 34.5181 122.338 34.4722 122.324C33.5379 122.062 32.7885 121.3 32.2441 120.06C31.9893 119.477 31.9292 118.863 31.8093 117.639C31.7904 117.45 31.7073 116.495 31.8095 115.229C31.876 114.402 31.9649 114.07 32.1898 113.809C32.4395 113.518 32.776 113.352 33.1316 113.268C33.1412 113.159 33.177 113.051 33.248 112.95C33.5405 112.529 34.0301 112.702 34.2958 112.792C34.4297 112.84 34.5965 112.901 34.7841 112.933C35.0789 112.984 35.255 112.932 35.5215 112.855C35.7765 112.781 36.0936 112.689 36.5318 112.696C37.3966 112.708 38.0368 113.097 38.2479 113.225C39.3597 113.894 39.7435 114.961 40.1877 116.196C40.276 116.443 40.5689 117.338 40.6372 118.49C40.6864 119.322 40.5776 119.662 40.4528 119.905C40.1978 120.405 39.8075 120.637 38.8387 121.125C37.8266 121.636 37.3188 121.892 36.9024 122.024C35.9336 122.328 35.3252 122.519 34.6095 122.36Z" fill="#F2F2F2"/>
<path d="M294.42 25.9236C294.42 25.9236 300.705 29.6127 298.644 33.261C296.583 36.9093 293.709 41.8786 295.658 43.4437C297.608 45.0088 300.827 51.9091 300.827 51.9091C300.827 51.9091 314.565 49.9887 313.275 60.6694C311.985 71.3502 305.531 72.8063 311.063 77.505C316.595 82.2038 305.314 87.8234 305.314 87.8234C305.314 87.8234 297.526 85.3944 295.749 77.925C293.972 70.4555 297.333 83.6363 296.206 84.5814C295.079 85.5265 290.702 91.756 287.606 83.4735C284.509 75.191 287.575 71.9798 283.483 67.0915C279.392 62.2033 276.61 54.2968 276.731 52.9148C276.853 51.5327 272.051 38.9209 279.443 34.0025C286.835 29.084 294.42 25.9236 294.42 25.9236Z" fill="#2F2E41"/>
<path d="M356.329 141.81C359.978 144.833 364.494 145.398 366.416 143.074C368.337 140.749 366.937 136.415 363.286 133.392C361.844 132.164 360.129 131.3 358.286 130.872L342.662 118.26L336.905 125.724L352.918 137.364C353.684 139.097 354.854 140.622 356.329 141.81Z" fill="#FFB6B6"/>
<path d="M309.505 73.0292C309.505 73.0292 297.245 64.8228 293.23 68.8468C289.215 72.8708 290.173 82.9215 290.173 82.9215L322.326 120.424L347.821 136.644L354.657 125.93L333.223 106.788L309.505 73.0292Z" fill="#3F3D56"/>
<path d="M291.533 55.2528L295.981 71.0782H271.565L279.605 51.5789L291.533 55.2528Z" fill="#FFB6B6"/>
<path opacity="0.1" d="M291.533 55.2528L295.981 71.0782H271.565L279.605 51.5789L291.533 55.2528Z" fill="black"/>
<path d="M238.286 172.097C237.971 176.827 240.154 180.824 243.162 181.024C246.17 181.225 248.863 177.553 249.178 172.821C249.329 170.932 249.027 169.035 248.296 167.287L249.378 147.228L239.962 146.92L239.895 166.728C238.938 168.363 238.386 170.204 238.286 172.097Z" fill="#FFB6B6"/>
<path d="M266.64 93.8553C266.64 93.8553 266.119 79.1024 260.51 78.1967C254.9 77.2911 247.316 83.9483 247.316 83.9483L235.729 131.985L237.497 162.168L250.178 161.451L253.154 132.855L266.64 93.8553Z" fill="#3F3D56"/>
<path d="M321.025 270.156C321.025 270.156 330.252 287.306 329.593 286.647C328.934 285.987 317.73 289.945 317.73 289.945L311.14 272.795L321.025 270.156Z" fill="#FFB6B6"/>
<path d="M334.644 150.11C334.644 150.11 339.367 169.006 338.891 168.204C338.414 167.403 326.581 168.477 326.581 168.477L324.413 150.231L334.644 150.11Z" fill="#FFB6B6"/>
<path d="M297.959 65.8013H274.923L249.848 82.9511L242.598 142.976L246.553 154.848L253.802 168.7C253.802 168.7 246.553 138.358 264.347 150.231C282.141 162.104 283.46 164.083 283.46 164.083L307.185 152.21L316.083 103.069L309.492 76.0252L297.959 65.8013Z" fill="#3F3D56"/>
<path d="M252.484 146.933C273.335 149.865 292.169 147.309 307.515 135.266C307.515 135.266 318.719 172.864 298.288 176.822C277.858 180.779 255.12 173.977 252.484 167.381C249.848 160.785 252.484 146.933 252.484 146.933Z" fill="#2F2E41"/>
<path d="M291.368 158.806L314.105 212.441L324.65 274.444L310.81 277.742L286.054 220.686L252.484 166.062L291.368 158.806Z" fill="#2F2E41"/>
<path d="M294.334 143.511C294.334 143.511 299.606 102.616 309.492 99.9772C314.312 98.6909 318.818 98.8155 322.171 99.2811C325.55 99.7504 328.244 102.334 328.835 105.697L337.818 156.827H325.115L321.026 142.975L310.151 161.98L294.334 143.511Z" fill="#2F2E41"/>
<path d="M326.627 163.3L339.188 161.981L341.127 169.236C341.127 169.236 361.557 187.705 351.012 189.025C340.468 190.344 330.582 183.088 330.582 183.088L316.076 174.76C316.076 174.76 321.685 159.796 325.639 159.796C329.593 159.796 326.627 163.3 326.627 163.3Z" fill="#2F2E41"/>
<path d="M320.037 286.977L332.598 285.657L334.536 292.913C334.536 292.913 354.967 311.382 344.422 312.701C333.877 314.021 323.991 306.765 323.991 306.765L309.486 298.437C309.486 298.437 310.481 282.813 314.435 282.813C318.389 282.813 320.037 286.977 320.037 286.977Z" fill="#2F2E41"/>
<path d="M285.732 58.6916C293.853 58.6916 300.436 52.1029 300.436 43.9753C300.436 35.8477 293.853 29.259 285.732 29.259C277.611 29.259 271.028 35.8477 271.028 43.9753C271.028 52.1029 277.611 58.6916 285.732 58.6916Z" fill="#FFB6B6"/>
<path d="M291.368 27.5423C291.368 27.5423 293.819 34.4099 289.898 35.8815C285.977 37.3531 280.586 39.3153 281.076 41.768C281.566 44.2207 279.605 51.5789 279.605 51.5789C279.605 51.5789 291.368 58.937 283.526 66.2952C275.684 73.6533 269.803 70.6212 271.028 77.7785C272.253 84.9358 260 81.9925 260 81.9925C260 81.9925 255.589 75.1249 259.02 68.2573C262.451 61.3897 256.569 73.6533 255.099 73.6533C253.629 73.6533 246.277 75.6155 249.217 67.2763C252.158 58.937 256.569 58.4465 256.569 52.0694C256.569 45.6924 259.51 37.8437 260.49 36.8626C261.471 35.8815 265.882 23.1274 274.704 24.1085C283.526 25.0896 291.368 27.5423 291.368 27.5423Z" fill="#2F2E41"/>
<path d="M162.853 270.156C162.853 270.156 153.627 287.306 154.286 286.647C154.945 285.987 166.149 289.945 166.149 289.945L172.739 272.795L162.853 270.156Z" fill="#A0616A"/>
<path d="M231.395 146.933C210.543 149.865 191.71 147.309 176.364 135.266C176.364 135.266 165.16 172.864 185.591 176.822C206.021 180.779 228.758 173.977 231.395 167.381C234.031 160.785 231.395 146.933 231.395 146.933Z" fill="#2F2E41"/>
<path d="M192.511 158.806L169.773 212.441L159.229 274.444L173.069 277.742L197.824 220.686L231.395 166.062L192.511 158.806Z" fill="#2F2E41"/>
<path d="M163.842 286.977L151.281 285.657L149.343 292.913C149.343 292.913 128.912 311.382 139.457 312.701C150.002 314.021 159.888 306.765 159.888 306.765L174.393 298.437C174.393 298.437 173.398 282.813 169.444 282.813C165.49 282.813 163.842 286.977 163.842 286.977Z" fill="#2F2E41"/>
<path d="M183.687 261.133C183.687 261.133 180.197 280.296 180.62 279.465C181.044 278.634 192.921 278.939 192.921 278.939L193.904 260.591L183.687 261.133Z" fill="#A0616A"/>
<path d="M177.575 146.057L172.479 204.096L181.561 266.331L195.742 265.195L201.703 203.278L216.799 140.953L177.575 146.057Z" fill="#2F2E41"/>
<path d="M189.812 276.828L177.457 279.451L177.85 286.952C177.85 286.952 164.109 310.828 174.546 308.827C184.983 306.826 192.15 296.872 192.15 296.872L203.381 284.471C203.381 284.471 197.619 269.916 193.857 271.137C190.096 272.358 189.812 276.828 189.812 276.828Z" fill="#2F2E41"/>
<path d="M189.459 25.9236C189.459 25.9236 183.174 29.6127 185.235 33.261C187.296 36.9093 190.17 41.8786 188.22 43.4437C186.271 45.0088 183.052 51.9091 183.052 51.9091C183.052 51.9091 169.314 49.9887 170.604 60.6694C171.894 71.3502 178.347 72.8063 172.816 77.505C167.284 82.2038 178.565 87.8234 178.565 87.8234C178.565 87.8234 186.353 85.3944 188.13 77.925C189.906 70.4555 186.546 83.6363 187.673 84.5814C188.8 85.5265 193.176 91.756 196.273 83.4735C199.37 75.191 196.303 71.9798 200.395 67.0915C204.487 62.2033 207.269 54.2968 207.147 52.9148C207.025 51.5327 211.828 38.9209 204.436 34.0025C197.044 29.084 189.459 25.9236 189.459 25.9236Z" fill="#2F2E41"/>
<path d="M192.346 55.2528L187.897 71.0782H212.313L204.273 51.5789L192.346 55.2528Z" fill="#A0616A"/>
<path opacity="0.1" d="M192.346 55.2528L187.897 71.0782H212.313L204.273 51.5789L192.346 55.2528Z" fill="black"/>
<path d="M245.592 172.097C245.908 176.827 243.724 180.824 240.716 181.024C237.709 181.225 235.016 177.553 234.701 172.821C234.549 170.932 234.852 169.035 235.583 167.287L234.5 147.228L243.917 146.92L243.984 166.728C244.941 168.363 245.492 170.204 245.592 172.097Z" fill="#A0616A"/>
<path d="M217.239 93.8553C217.239 93.8553 217.76 79.1024 223.369 78.1967C228.979 77.2911 236.563 83.9483 236.563 83.9483L248.15 131.985L246.382 162.168L233.701 161.451L230.724 132.855L217.239 93.8553Z" fill="#E8E120"/>
<path d="M185.92 65.8013H208.956L234.031 82.9511L241.28 142.976L237.326 154.848L230.076 168.7C230.076 168.7 237.326 138.358 219.532 150.231C219.354 150.35 219.177 150.468 219.003 150.584C207.548 158.242 192.434 157.455 181.831 148.655L173.398 141.656L178.011 118.57L174.387 76.0252L185.92 65.8013Z" fill="#E8E120"/>
<path d="M128.279 140.95C124.584 143.917 120.06 144.414 118.174 142.06C116.288 139.707 117.754 135.395 121.45 132.427C122.911 131.222 124.638 130.384 126.489 129.983L142.301 117.611L147.944 125.161L131.757 136.557C130.965 138.278 129.772 139.785 128.279 140.95Z" fill="#A0616A"/>
<path d="M176.142 72.8895C176.142 72.8895 188.526 64.8706 192.479 68.9552C196.432 73.0398 195.321 83.0748 195.321 83.0748L162.603 120.084L136.865 135.914L130.192 125.097L151.914 106.283L176.142 72.8895Z" fill="#E8E120"/>
<path d="M198.147 58.6916C206.267 58.6916 212.851 52.1029 212.851 43.9753C212.851 35.8477 206.267 29.259 198.147 29.259C190.026 29.259 183.443 35.8477 183.443 43.9753C183.443 52.1029 190.026 58.6916 198.147 58.6916Z" fill="#A0616A"/>
<path d="M190.827 34.1112C190.827 34.1112 188.661 26.8843 192.271 26.8843C195.881 26.8843 210.323 27.607 211.767 29.0523C213.211 30.4977 230.3 45.0037 220.191 56.5667C210.082 68.1296 220.191 73.7165 220.191 73.7165C220.191 73.7165 227.653 91.2032 220.432 92.6486C213.211 94.094 183.592 85.8293 190.827 72.4134C198.678 57.8543 202.33 34.8751 190.827 34.1112Z" fill="#2F2E41"/>
<path d="M431.433 141.548C431.199 140.833 429.43 141.148 429.26 140.508C429.091 139.871 430.789 139.337 432.091 137.541C432.325 137.218 433.805 135.177 433.238 134.319C432.162 132.692 424.678 136.744 422.881 134.47C422.487 133.971 422.325 133.115 421.15 131.52C420.683 130.886 420.383 130.58 420.025 130.589C419.517 130.602 419.335 131.238 418.536 132.391C417.338 134.12 416.906 133.903 416.117 135.319C415.531 136.37 415.462 137.042 415.039 137.082C414.442 137.138 414.195 135.829 413.464 135.778C412.719 135.726 411.973 137.02 411.603 138.03C410.909 139.927 411.339 141.376 411.434 142.821C411.538 144.391 411.295 146.689 409.59 149.638L393.515 175.272C396.967 170.046 406.767 155.797 410.715 150.57C411.855 149.061 413.08 147.546 414.965 147.261C416.78 146.986 418.989 147.885 422.072 147.833C422.432 147.826 423.433 147.797 423.677 147.265C423.879 146.826 423.378 146.444 423.56 146.031C423.804 145.477 424.903 145.714 426.399 145.346C427.455 145.087 428.172 144.658 428.788 144.29C428.974 144.179 431.743 142.5 431.433 141.548Z" fill="#F2F2F2"/>
<path d="M389.329 147.533C388.911 147.441 388.554 148.401 388.192 148.3C387.831 148.199 388.058 147.211 387.554 146.054C387.463 145.845 386.889 144.529 386.304 144.56C385.196 144.619 385.024 149.465 383.39 149.691C383.032 149.741 382.565 149.573 381.444 149.69C380.998 149.737 380.762 149.796 380.663 149.974C380.523 150.228 380.782 150.501 381.117 151.226C381.619 152.313 381.388 152.463 381.855 153.259C382.201 153.85 382.511 154.078 382.408 154.297C382.263 154.607 381.55 154.35 381.314 154.695C381.074 155.046 381.493 155.785 381.882 156.259C382.612 157.147 383.447 157.354 384.182 157.724C384.982 158.126 386.039 158.908 386.994 160.597L394.926 175.889C393.359 172.686 389.199 163.76 387.775 160.313C387.364 159.317 386.974 158.278 387.379 157.27C387.768 156.299 388.846 155.474 389.709 153.944C389.81 153.766 390.085 153.265 389.895 152.992C389.737 152.766 389.405 152.902 389.255 152.693C389.054 152.413 389.488 151.943 389.739 151.101C389.916 150.508 389.913 150.032 389.91 149.623C389.909 149.499 389.885 147.655 389.329 147.533Z" fill="#F2F2F2"/>
<path d="M397.242 151.264L397.492 148.96L397.644 148.815C398.352 148.146 398.795 147.437 398.961 146.707C398.987 146.591 399.007 146.474 399.028 146.354C399.111 145.881 399.214 145.292 399.669 144.68C399.924 144.339 400.597 143.569 401.292 143.838C401.48 143.909 401.606 144.03 401.694 144.159C401.716 144.137 401.739 144.115 401.763 144.09C402.063 143.798 402.273 143.692 402.475 143.589C402.631 143.509 402.791 143.428 403.063 143.21C403.182 143.115 403.277 143.029 403.358 142.957C403.602 142.739 403.913 142.484 404.341 142.585C404.793 142.709 404.949 143.141 405.052 143.428C405.235 143.938 405.292 144.289 405.33 144.522C405.343 144.607 405.359 144.703 405.371 144.734C405.47 144.984 406.714 145.049 407.182 145.076C408.234 145.133 409.145 145.182 409.364 145.903C409.521 146.419 409.193 146.982 408.362 147.62C408.104 147.819 407.845 147.956 407.619 148.058C407.758 148.189 407.868 148.368 407.875 148.611C407.89 149.186 407.301 149.628 406.123 149.925C405.83 150 405.436 150.099 404.921 150.074C404.678 150.062 404.466 150.025 404.285 149.99C404.258 150.093 404.208 150.201 404.119 150.303C403.857 150.603 403.433 150.68 402.858 150.51C402.224 150.333 401.723 150.093 401.28 149.881C400.894 149.697 400.561 149.539 400.281 149.496C399.761 149.423 399.276 149.745 398.696 150.172L397.242 151.264Z" fill="#F2F2F2"/>
<path d="M401.392 138.141L399.102 138.484L398.923 138.373C398.097 137.858 397.299 137.609 396.552 137.633C396.433 137.637 396.314 137.647 396.194 137.657C395.715 137.697 395.12 137.747 394.413 137.462C394.019 137.302 393.104 136.845 393.188 136.104C393.208 135.905 393.293 135.751 393.396 135.633C393.369 135.618 393.341 135.601 393.312 135.584C392.954 135.368 392.797 135.191 392.646 135.022C392.53 134.891 392.411 134.757 392.132 134.549C392.009 134.458 391.902 134.387 391.812 134.328C391.54 134.147 391.214 133.91 391.203 133.471C391.208 133.001 391.587 132.741 391.837 132.569C392.284 132.261 392.609 132.117 392.824 132.022C392.903 131.987 392.992 131.948 393.019 131.928C393.235 131.769 392.982 130.548 392.889 130.088C392.678 129.055 392.495 128.161 393.136 127.766C393.595 127.483 394.222 127.657 395.049 128.3C395.307 128.5 395.505 128.716 395.661 128.908C395.753 128.741 395.897 128.588 396.13 128.52C396.683 128.36 397.259 128.818 397.845 129.883C397.992 130.148 398.187 130.504 398.294 131.009C398.344 131.247 398.362 131.462 398.374 131.646C398.481 131.646 398.597 131.667 398.718 131.728C399.075 131.905 399.256 132.296 399.239 132.895C399.228 133.554 399.123 134.101 399.031 134.583C398.951 135.003 398.883 135.366 398.912 135.648C398.974 136.169 399.407 136.557 399.968 137.011L401.392 138.141Z" fill="#F2F2F2"/>
<path d="M401.7 131.259L401.95 128.955L402.103 128.81C402.81 128.141 403.253 127.432 403.419 126.702C403.445 126.586 403.466 126.469 403.487 126.349C403.569 125.875 403.672 125.287 404.127 124.675C404.382 124.334 405.056 123.564 405.75 123.833C405.938 123.903 406.065 124.025 406.152 124.154C406.175 124.132 406.197 124.109 406.221 124.085C406.521 123.793 406.731 123.686 406.934 123.583C407.089 123.504 407.25 123.422 407.521 123.205C407.64 123.11 407.736 123.024 407.816 122.952C408.06 122.734 408.372 122.479 408.799 122.58C409.252 122.704 409.407 123.136 409.51 123.422C409.694 123.933 409.75 124.284 409.788 124.517C409.801 124.602 409.817 124.697 409.829 124.729C409.928 124.979 411.172 125.043 411.64 125.07C412.692 125.127 413.603 125.177 413.822 125.898C413.979 126.414 413.652 126.976 412.821 127.615C412.562 127.813 412.303 127.95 412.078 128.053C412.216 128.184 412.327 128.362 412.333 128.605C412.349 129.181 411.759 129.622 410.581 129.92C410.288 129.995 409.895 130.094 409.379 130.069C409.137 130.057 408.924 130.019 408.743 129.985C408.716 130.088 408.666 130.195 408.577 130.297C408.315 130.598 407.891 130.674 407.317 130.505C406.682 130.328 406.181 130.087 405.739 129.876C405.352 129.691 405.019 129.534 404.739 129.491C404.22 129.418 403.735 129.739 403.154 130.167L401.7 131.259Z" fill="#F2F2F2"/>
<path d="M394.275 175.403L393.87 175.003L393.307 174.943C393.31 174.89 393.306 174.766 393.302 174.573C393.281 173.513 393.213 170.287 393.662 165.331C393.976 161.871 394.499 158.359 395.219 154.891C395.939 151.417 396.687 148.833 397.288 146.756C397.741 145.189 398.199 143.703 398.645 142.255C399.837 138.388 400.963 134.734 401.66 130.567C401.816 129.637 402.14 127.701 401.477 125.415C401.092 124.09 400.433 122.842 399.518 121.708L400.404 120.992C401.414 122.245 402.142 123.627 402.569 125.099C403.305 127.633 402.952 129.742 402.782 130.756C402.073 134.997 400.936 138.685 399.732 142.59C399.288 144.032 398.832 145.512 398.381 147.072C397.785 149.131 397.044 151.693 396.333 155.122C395.622 158.548 395.105 162.017 394.795 165.434C394.352 170.327 394.419 173.505 394.44 174.549C394.452 175.106 394.454 175.223 394.275 175.403Z" fill="#F2F2F2"/>
<path d="M397.087 123.019C397.042 123.009 396.996 122.998 396.95 122.984C396.016 122.722 395.267 121.96 394.722 120.72C394.467 120.136 394.407 119.522 394.287 118.298C394.268 118.109 394.185 117.154 394.288 115.889C394.354 115.061 394.443 114.729 394.668 114.468C394.918 114.178 395.254 114.011 395.61 113.928C395.619 113.818 395.655 113.711 395.726 113.61C396.019 113.188 396.508 113.362 396.774 113.452C396.908 113.5 397.074 113.561 397.262 113.593C397.557 113.644 397.733 113.592 398 113.514C398.255 113.44 398.572 113.348 399.01 113.356C399.875 113.368 400.515 113.757 400.726 113.885C401.838 114.554 402.222 115.62 402.666 116.855C402.754 117.103 403.047 117.998 403.115 119.15C403.164 119.981 403.056 120.322 402.931 120.565C402.676 121.065 402.286 121.297 401.317 121.785C400.305 122.296 399.797 122.552 399.38 122.683C398.412 122.988 397.803 123.179 397.087 123.019Z" fill="#F2F2F2"/>
<path d="M110.167 135.517L109.423 112.04C109.411 111.659 109.561 111.288 109.834 111.022C110.107 110.756 110.482 110.616 110.863 110.639L129.477 111.756C129.853 111.779 130.206 111.959 130.445 112.25C130.684 112.541 130.793 112.922 130.742 113.296L127.593 136.63C127.498 137.336 126.867 137.852 126.157 137.805L111.435 136.831C111.286 136.821 111.144 136.788 111.012 136.734C110.526 136.538 110.184 136.07 110.167 135.517Z" fill="#E8E120"/>
<path d="M109.446 109.843C109.707 109.816 110.056 109.782 110.474 109.747C110.362 109.538 110.317 109.292 110.364 109.038L110.697 107.28C110.783 106.823 111.151 106.474 111.611 106.412C114.351 106.045 123.778 105.05 129.715 107.745C130.086 107.914 130.325 108.284 130.337 108.692L130.391 110.568C130.398 110.8 130.33 111.015 130.212 111.194C130.706 111.326 131.198 111.467 131.686 111.62C131.991 111.716 132.21 111.986 132.247 112.305L132.339 113.104C132.398 113.611 131.982 114.047 131.473 114.012L109.22 112.508C108.713 112.474 108.361 111.99 108.482 111.497L108.739 110.46C108.821 110.126 109.104 109.88 109.446 109.843Z" fill="#3F3D56"/>
<path d="M54.1474 68.8964L53.4038 45.419C53.3917 45.0379 53.5413 44.6669 53.8145 44.4011C54.0877 44.1352 54.4627 43.9957 54.8432 44.0185L73.4575 45.1359C73.8336 45.1583 74.1864 45.3382 74.4256 45.6295C74.6649 45.9206 74.7732 46.3017 74.7227 46.6752L71.5738 70.0097C71.4785 70.7158 70.8477 71.2318 70.1375 71.1846L55.4158 70.2103C55.2664 70.2004 55.1242 70.1671 54.9925 70.1138C54.5063 69.9169 54.1649 69.4492 54.1474 68.8964Z" fill="#E8E120"/>
<path d="M53.4268 43.2229C53.6872 43.1954 54.0361 43.1617 54.4549 43.1265C54.3429 42.9178 54.2971 42.6711 54.345 42.4178L54.6774 40.6592C54.7637 40.2028 55.1311 39.8529 55.5911 39.7914C58.3319 39.4246 67.7589 38.4294 73.695 41.1247C74.0664 41.2934 74.3053 41.6637 74.3171 42.0717L74.3714 43.9478C74.3781 44.1798 74.3108 44.3948 74.1927 44.573C74.6862 44.7058 75.1781 44.8462 75.666 44.9994C75.9718 45.0953 76.1906 45.3654 76.2274 45.684L76.3196 46.4831C76.3781 46.9902 75.9628 47.4262 75.4539 47.3918L53.2002 45.8877C52.6938 45.8534 52.3411 45.3697 52.4629 44.8766L52.7193 43.8391C52.8019 43.5049 53.0847 43.2589 53.4268 43.2229Z" fill="#3F3D56"/>
<path d="M346.107 141.453L345.363 117.976C345.351 117.595 345.501 117.224 345.774 116.958C346.047 116.692 346.422 116.553 346.803 116.575L365.417 117.693C365.793 117.715 366.146 117.895 366.385 118.186C366.625 118.477 366.733 118.859 366.682 119.232L363.534 142.567C363.438 143.273 362.807 143.789 362.097 143.742L347.375 142.767C347.226 142.757 347.084 142.724 346.952 142.671C346.466 142.474 346.125 142.006 346.107 141.453Z" fill="#E8E120"/>
<path d="M345.387 115.78C345.647 115.752 345.996 115.719 346.415 115.683C346.303 115.475 346.257 115.228 346.305 114.975L346.637 113.216C346.723 112.76 347.091 112.41 347.551 112.348C350.292 111.981 359.719 110.986 365.655 113.682C366.026 113.85 366.265 114.221 366.277 114.629L366.331 116.505C366.338 116.737 366.27 116.952 366.152 117.13C366.646 117.263 367.138 117.403 367.626 117.556C367.932 117.652 368.15 117.922 368.187 118.241L368.279 119.04C368.338 119.547 367.922 119.983 367.414 119.949L345.16 118.445C344.653 118.41 344.301 117.927 344.423 117.433L344.679 116.396C344.762 116.062 345.044 115.816 345.387 115.78Z" fill="#3F3D56"/>
</g>
<defs>
<clipPath id="clip0_4026_783">
<rect width="435" height="315" fill="white" transform="translate(0 0.5)"/>
</clipPath>
</defs>
</svg>
